<svg id="e99b0a51-bfbe-4192-89b4-8bcf41badbb0" data-name="Ebene 1" xmlns="http://www.w3.org/2000/svg" width="1101.4556" height="942.9708" viewBox="0 0 1101.4556 942.9708"><defs><style>.ade79c9e-3922-4304-9bf1-b8ad1ec3d0fd{fill:#1d1d1b;}.bf1b6c8a-e7a1-4fcb-84eb-e3eadaa201e0{fill:#010101;}</style></defs><title>modloader_icon</title><path class="ade79c9e-3922-4304-9bf1-b8ad1ec3d0fd" d="M920.0508,1001.5576q0,6.27-5.8633,6.2676H842.6162q-5.8667,0-5.8633-7.0762,0-20.4185,1.5157-61.2607,1.5176-40.8369,1.5166-61.2608,0-5.8608-1.8194-6.2675-2.2279,1.2142-27.0918,62.4736-14.5576,35.99-29.1142,71.7744-2.0231,4.6479-5.0547,5.459a80.6777,80.6777,0,0,1-8.0869.2021q-10.5147,0-12.5352-4.0439-10.9174-22.2378-28.71-64.6973-19.0064-44.8842-28.5068-64.9a6.33,6.33,0,0,0-1.82-2.2236q-1.4165,1.8193-1.415,5.8633,0,19.8163,1.0107,59.44,1.0093,39.63,1.0117,59.4414,0,7.08-5.6611,7.0762H624.4639q-4.0475,0-4.9532-1.3145a8.36,8.36,0,0,1-.91-4.5488q0-22.0341,2.123-66.2139,2.1226-44.1723,2.1231-66.2138,0-23.4507-2.0225-87.9483-.2036-16.78-1.8193-49.9384l-.2022-3.4375q-.2035-4.0416,8.4912-4.043,11.1168,0,33.36-.708,22.2378-.706,33.3594-.707,2.2221,0,6.2676,8.4912l59.0361,129.5976q6.265,13.1441,10.5137,13.1416,2.2221,0,9.5029-15.164,20.4185-42.4571,60.4512-127.98,3.435-7.8854,7.48-7.8848,5.8623,0,17.6914.6064,11.8272.6064,17.8926.6065,5.0508,0,15.4668-1.0107,10.4106-1.0094,15.4668-1.0108,6.0659,0,6.0654,4.8516,0,23.8593-1.7187,71.2685-1.72,47.4141-1.7188,71.2686,0,22.0386,1.82,66.1133Q920.0508,979.7246,920.0508,1001.5576Z" transform="translate(-59.5933 -102.4847)"/><path class="ade79c9e-3922-4304-9bf1-b8ad1ec3d0fd" d="M1143.46,1011.2627q-17.3907,0-45.2891-.81-36.3926-.81-45.2881-1.0107l-60.4521-.8086q-9.0967.1992-26.0811-.8086-5.8652-1.0094-5.8633-6.2676,0-22.0341.708-66.0117.706-43.9746.708-66.0117,0-23.4507-1.416-70.2578-1.4164-46.8033-1.415-70.2569,0-4.4457,6.0654-4.4482,6.066,0,18.0957.6064,12.0264.6064,17.8926.6065,6.6723,0,19.8135-.7071,13.14-.7061,19.8135-.708,3.0336,0,2.831,3.8409l-.2021,2.6289q-2.4273,38.0127-5.459,114.2314l-.2022,53.376q0,25.8809.2022,37.8076.1992,2.4258.4043,4.8516.1992,2.4272,3.0322,3.0332h5.2568q18.1964,0,54.4873-1.9209,36.2886-1.919,54.4873-1.9209,5.46,0,5.459,4.65,0,34.5732-5.0537,59.6425-1.015,5.256-4.2461,6.2676Q1150.7353,1011.26,1143.46,1011.2627Z" transform="translate(-59.5933 -102.4847)"/><path class="bf1b6c8a-e7a1-4fcb-84eb-e3eadaa201e0" d="M1079.666,561.3441l-61.9142-10.0212a13.0878,13.0878,0,0,1-10.8664-11.2768c-1.1832-7.6065-2.4148-15.5027-4.1051-22.9884a13.33,13.33,0,0,1,6.3508-14.1264l55.0081-30.5465a24.9927,24.9927,0,0,0,12.0737-30.9812l-9.5383-26.3208a24.92,24.92,0,0,0-29.2911-15.72l-61.6967,12.0738a13.3053,13.3053,0,0,1-14.0539-6.7855c-3.5979-6.7371-7.51-13.595-11.5907-20.3321a13.5226,13.5226,0,0,1,1.0625-15.6959l41.0507-47.4257a25.1614,25.1614,0,0,0,.9418-33.2269L975.18,266.4551a24.7269,24.7269,0,0,0-32.7922-4.83l-54.0179,32.43a13.0156,13.0156,0,0,1-15.43-1.5213c-5.9644-5.24-12.0738-10.2869-17.7967-14.9474a13.16,13.16,0,0,1-4.1534-14.9955l22.3606-58.92a24.9927,24.9927,0,0,0-10.4075-31.5608l-24.3649-14.2229a24.8721,24.8721,0,0,0-32.4785,6.8338l-39.481,49.5989a11.108,11.108,0,0,1-13.5226,4.1534c-1.473-.6037-13.9331-5.6989-23.6163-8.9346a13.0879,13.0879,0,0,1-9.0311-12.6291l.9417-62.9525a25.3066,25.3066,0,0,0-20.6944-26.2725l-27.6489-4.8295A25.234,25.234,0,0,0,644.673,120.17l-20.5253,59.91a13.1845,13.1845,0,0,1-12.943,8.8138H587.6609a13.2813,13.2813,0,0,1-12.7982-8.8621l-20.4288-59.5718a25.2581,25.2581,0,0,0-28.4216-17.507l-27.6972,4.8295a25.2583,25.2583,0,0,0-20.67,26.0551l.9659,63.17a13.1606,13.1606,0,0,1-9.3209,12.6775c-5.53,2.1491-17.5311,6.7371-22.9885,8.7655-4.8295,1.7386-10.0936-.169-14.3436-5.071L392.694,165.0839a24.8721,24.8721,0,0,0-32.5025-6.9787l-24.2924,14.078a25.0169,25.0169,0,0,0-10.4317,31.8023L347.8038,262.76l73.505,124.0458,110.2333,194.025a38.2741,38.2741,0,0,1,0,38.0081l-111.32,193.4938-71.718,125.2048-22.3847,58.92a24.9926,24.9926,0,0,0,10.4075,31.5608l24.4132,14.102a24.872,24.872,0,0,0,32.4784-6.81l39.964-49.14,91.4553-154.6966,93.1765-162.0461a38.1288,38.1288,0,0,1,33.0821-19.1489h222.495l144.4742-1.8352,62.035-9.9971a25.1861,25.1861,0,0,0,22.1675-24.8236V585.3467A25.5483,25.5483,0,0,0,1079.666,561.3441ZM885,548.0519a38.15,38.15,0,0,1-11.4813,1.75H651.3619a38.1046,38.1046,0,0,1-33.2269-19.3179h0L508.24,336.9657a38.1771,38.1771,0,0,1,24.8961-56.2636A323.574,323.574,0,0,1,600,273.7476c144.8849,0,267.82,95.2377,309.9813,226.4793A38.153,38.153,0,0,1,885,548.0519Z" transform="translate(-59.5933 -102.4847)"/><path class="ade79c9e-3922-4304-9bf1-b8ad1ec3d0fd" d="M343.0493,591.77q3.64,0,5.0547,5.0537,1.6158,6.066,1.6172,37.6055,0,28.9161-1.6172,37.2012-1.4121,6.876-9.0977,8.6943-29.1151,6.876-31.1357,10.7149-1.4121,3.2373-1.416,54.1845,0,34.374,1.82,36.5948,3.2358,3.4393,21.6328,7.6826,16.7843,3.8438,18.1963,9.3008,1.6158,6.8745,1.6172,46.0966,0,30.9331-5.8633,30.9336-5.2543,0-129.1924-45.6924-134.045-49.5336-147.39-53.78-7.68-2.4258-7.6826-5.6612,0-5.4594,1.0107-16.8818,1.0152-11.42,1.0107-17.084,0-5.4594-.707-16.0732-.706-10.6158-.708-15.8711,0-3.8394,6.6719-7.0772Q88.1,687.8087,212.4409,639.8877,337.5928,591.7719,343.0493,591.77ZM158.8638,735.1143q8.8989,4.2465,38.6162,14.3554,31.5395,10.9175,36.999,10.917,3.6387,0,4.0439-12.13.4073-6.265.4043-20.623,0-13.3433-3.2353-14.7588a7.8909,7.8909,0,0,0-2.83-.4043q-6.6723,0-36.7969,9.3Q166.9513,730.8686,158.8638,735.1143Z" transform="translate(-59.5933 -102.4847)"/><path class="ade79c9e-3922-4304-9bf1-b8ad1ec3d0fd" d="M167.9614,212.0752q.6065,0,81.4785,37.6055,82.49,38.2119,92.8008,43.6709a28.6877,28.6877,0,0,1,4.044,2.2236q1.0136.81,1.8193,3.8418,1.2129,5.0552,1.2129,28.709,0,22.04-1.2129,26.8906a18.454,18.454,0,0,1-1.6172,4.8516,15.2305,15.2305,0,0,1-3.8418,2.6289q-2.2221,1.2129-28.5068,11.5244l-56.2061,22.0371,56.8125,22.4424q9.7047,3.4394,27.9,11.3222a21.52,21.52,0,0,1,4.1446,2.83q.7119.81,1.3144,4.65,1.2129,6.876,1.2129,26.4854,0,24.2622-1.2129,29.1142-.8057,3.44-5.8633,5.66-162.7515,79.2582-174.2793,79.2549-16.1718,0-48.4218-1.1123-32.2456-1.1089-48.4219-1.1114-6.6725,0-6.6719-4.0439,0-11.5239,1.0107-34.876,1.0137-23.3511,1.0108-35.0781,0-4.6481,3.8418-4.65,16.1777,0,48.8262,1.5166,32.6542,1.516,48.8261,1.5166,6.066,0,38.6162-14.76,29.1153-13.3432,39.4258-19.4092,5.2588-3.0321,5.2569-4.0429,0-1.6158-19.4092-8.29-54.3853-19.0019-64.294-19.4091-18.5991-.8057-47.3095-.2022-41.4434.6065-47.5127.6065-3.8379,0-4.5489-.6065-.7061-.6064-1.3144-4.4473-1.2129-10.3125-1.2129-35.5839,0-38.6148,5.459-38.6162,13.5468,0,42.0537,1.0107,27.7017,1.0137,42.0527.8086h10.3115q10.3111,0,65.7081-20.8242,19.2114-7.0752,19.207-8.4922,0-1.0093-5.2559-4.043-9.9038-5.6586-39.2236-18.1963-31.9424-13.9512-38.01-13.95-16.3755,0-49.0283,1.5157-32.6484,1.516-48.8262,1.5166-3.64,0-3.64-4.65,0-11.9268-1.0108-35.8868-1.0092-23.9574-1.0107-35.8867,0-3.8379,8.0869-3.8418,15.9741,0,47.8154-1.1113Q152.1923,212.0786,167.9614,212.0752Z" transform="translate(-59.5933 -102.4847)"/></svg>